<?xml version="1.0" encoding="utf-8"?>
<!-- Generator: Adobe Illustrator 27.0.1, SVG Export Plug-In . SVG Version: 6.00 Build 0)  -->
<svg version="1.1" id="Layer_1" xmlns="http://www.w3.org/2000/svg" xmlns:xlink="http://www.w3.org/1999/xlink" x="0px" y="0px"
	 viewBox="0 0 800 800" style="enable-background:new 0 0 800 800;" xml:space="preserve">
<style type="text/css">
	.st0{display:none;}
	.st1{display:inline;fill:#B50000;}
	.st2{display:inline;fill:#00B522;}
	.st3{display:inline;fill:#1630B2;}
	.st4{display:inline;fill:#2D60B1;}
	.st5{display:inline;fill-rule:evenodd;clip-rule:evenodd;fill:#00B522;}
	.st6{display:inline;opacity:0.29;fill:#2D60B1;enable-background:new    ;}
	.st7{display:inline;opacity:0.28;fill:#2D60B1;enable-background:new    ;}
	.st8{display:none;fill:#2D60B1;}
	.st9{fill:#2D60B1;}
</style>
<g class="st0">
	<path id="red" class="st1" d="M94.4,432.6c8.1-19.1,27-31.5,48.1-31.5h126.4V88.9c0-24.6,20-44.6,44.6-44.6h178.4
		c24.6,0,44.6,20,44.6,44.6v312.3h126.4c21.1,0,40,12.4,48.1,31.5s3.6,41-11.3,55.6L439.5,743.1c-20.3,19.9-53.3,19.9-73.6,0
		L105.7,488.2C90.8,473.6,86.3,451.7,94.4,432.6z"/>
</g>
<g class="st0">
	<path id="green" class="st2" d="M94.4,432.6c8.1-19.1,27-31.5,48.1-31.5h126.4V88.9c0-24.6,20-44.6,44.6-44.6h178.4
		c24.6,0,44.6,20,44.6,44.6v312.3h126.4c21.1,0,40,12.4,48.1,31.5s3.6,41-11.3,55.6L439.5,743.1c-20.3,19.9-53.3,19.9-73.6,0
		L105.7,488.2C90.8,473.6,86.3,451.7,94.4,432.6z"/>
</g>
<g class="st0">
	<path id="blue" class="st3" d="M94.4,432.6c8.1-19.1,27-31.5,48.1-31.5h126.4V88.9c0-24.6,20-44.6,44.6-44.6h178.4
		c24.6,0,44.6,20,44.6,44.6v312.3h126.4c21.1,0,40,12.4,48.1,31.5s3.6,41-11.3,55.6L439.5,743.1c-20.3,19.9-53.3,19.9-73.6,0
		L105.7,488.2C90.8,473.6,86.3,451.7,94.4,432.6z"/>
</g>
<g class="st0">
	<path id="def" class="st4" d="M94.4,432.6c8.1-19.1,27-31.5,48.1-31.5h126.4V88.9c0-24.6,20-44.6,44.6-44.6h178.4
		c24.6,0,44.6,20,44.6,44.6v312.3h126.4c21.1,0,40,12.4,48.1,31.5s3.6,41-11.3,55.6L439.5,743.1c-20.3,19.9-53.3,19.9-73.6,0
		L105.7,488.2C90.8,473.6,86.3,451.7,94.4,432.6z"/>
</g>
<g class="st0">
	<path id="x" class="st1" d="M402.7,60C214.2,60,61.5,212.7,61.5,401.2s152.8,341.2,341.2,341.2s341.2-152.8,341.2-341.2
		S591.1,60,402.7,60z M402.7,145.3c141.3,0,255.9,114.6,255.9,255.9S544,657,402.7,657S146.8,542.5,146.8,401.2
		S261.4,145.3,402.7,145.3z M288,230.6c-1.4,0-2.8,0.2-4.4,0.5v-0.1c-26,4.9-64.3,49.4-47.4,66.3l104,104l-104,103.9
		c-20.8,20.8,41.6,83.3,62.4,62.4l104-104l104,104c20.8,20.8,83.3-41.7,62.4-62.4l-104-104l104-104c20.8-20.8-41.6-83.2-62.4-62.4
		l-104,104.1l-104-104C295.8,231.9,292.2,230.6,288,230.6L288,230.6z"/>
</g>
<g class="st0">
	<path id="chec" class="st5" d="M69,401.2C69,216.9,218.4,67.5,402.7,67.5s333.6,149.4,333.6,333.6S586.9,734.8,402.7,734.8
		S69,585.4,69,401.2z M597.3,331.5c11.8-11.8,11.7-31.1-0.1-42.9l-21.5-21.4c-11.8-11.8-31-11.7-42.9,0.1L357.7,443.1L257,343.8
		c-11.9-11.7-31.1-11.6-42.9,0.3l-21.3,21.6c-11.7,11.9-11.6,31.1,0.3,42.9l143.7,141.7c11.9,11.7,31,11.6,42.8-0.2L597.3,331.5z"/>
</g>
<g class="st0">
	<path class="st4" d="M577.4,35.8H334.6h-18.8l-13.3,13.3L118.7,232.9l-13.3,13.3V265v379c0,67.6,55,122.6,122.6,122.6h349.4
		c67.6,0,122.6-55,122.6-122.6V158.4C700,90.8,645,35.8,577.4,35.8z M654.6,644c0,42.6-34.6,77.2-77.2,77.2H228
		c-42.6,0-77.2-34.6-77.2-77.2V265h119.5c35.5,0,64.3-28.8,64.3-64.3V81.2h242.8c42.6,0,77.2,34.6,77.2,77.2V644L654.6,644z"/>
	<polygon class="st6" points="123,248.2 328.3,55.7 604.9,55.7 674.8,111.3 669.1,681.6 623.5,737.2 187.2,745.8 123,677.3 	"/>
	<rect x="433.3" y="168.8" class="st4" width="127.6" height="127.6"/>
	<rect x="244.5" y="367.8" class="st4" width="316.4" height="35.7"/>
	<rect x="244.5" y="469.9" class="st4" width="316.4" height="35.7"/>
	<rect x="244.5" y="571.9" class="st4" width="316.4" height="35.7"/>
</g>
<g class="st0">
	<path class="st4" d="M427.7,418.1L711,304.8v188.4c-16.8-10.8-36.9-17-58.3-17c-59.8,0-108.3,48.5-108.3,108.3
		s48.5,108.3,108.3,108.3S761,644.3,761,584.5l0,0V266.1c0-38.1,0-70-2.7-95.5c-0.4-3.6-0.8-7.2-1.3-10.5
		c-2.6-17.4-7.1-33.6-16-47.2c-4.4-6.8-9.9-12.9-16.7-18.1c-1.3-1-2.6-1.9-4-2.9l-0.3-0.2c-23.5-15.7-50-14.5-77.3-7.6
		c-26.4,6.7-59.1,20.4-99.3,37.2l-69.8,29.2c-18.8,7.9-34.8,14.5-47.3,21.5c-13.3,7.4-24.8,16-33.4,28.9s-12.2,26.8-13.8,42
		c-1.5,14.2-1.5,31.5-1.5,51.9v265.1c-16.8-10.8-36.9-17-58.3-17c-59.8,0-108.3,48.5-108.3,108.3s48.5,108.3,108.3,108.3
		S427.6,711,427.6,651.2l0,0V418.1H427.7z"/>
	<path class="st4" d="M261,67.9c0-13.8-11.2-25-25-25s-25,11.2-25,25v192c-16.8-10.8-36.9-17-58.3-17
		c-59.8,0-108.3,48.5-108.3,108.3s48.5,108.3,108.3,108.3S261,411,261,351.2V168c23.3,16.8,51,24.9,75,24.9c13.8,0,25-11.2,25-25
		s-11.2-25-25-25c-15.1,0-34.5-5.9-49.6-18.4C271.9,112.6,261,94.5,261,67.9z"/>
</g>
<g class="st0">
	<path class="st7" d="M579.5,548.8l-61.6-61.6c38.4-34.6,68.3-52.3,96.3-55.9c27.6-3.5,55.5,6.9,90.4,33.6c1.5,1.2,3.4,1.7,5.2,1.7
		v37.7c0,167.9-36,203.9-203.9,203.9H299.4c-167.9,0-203.9-36-203.9-203.9v-43.4c2.1,0,4.4-0.8,6-2.5l43.6-43.6
		c29.6-29.6,54.5-51.3,77-65.6c22.4-14.3,42.1-20.9,61.1-20.9s38.7,6.7,61.1,20.9c22.5,14.3,47.5,36,77,65.6l146,146.1
		c3.4,3.4,8.7,3.4,12.1,0S582.8,552.1,579.5,548.8z"/>
	<path class="st4" d="M505.8,742.4H299.4c-84.1,0-148.5-8.3-189.1-48.9S61.4,588.6,61.4,504.4V298c0-84.1,8.3-148.5,48.9-189.1
		S215.3,60,299.4,60h206.4c84.1,0,148.5,8.3,189.1,48.9s48.9,105,48.9,189.1v206.4c0,84.1-8.3,148.5-48.9,189.1
		S589.9,742.4,505.8,742.4z M299.4,128.2c-79.4,0-120.2,8.4-140.8,29s-29,61.4-29,140.8v206.4c0,79.4,8.4,120.2,29,140.8
		c20.6,20.6,61.4,29,140.8,29h206.4c79.4,0,120.2-8.4,140.8-29s29-61.4,29-140.8V298c0-79.4-8.4-120.2-29-140.8s-61.4-29-140.8-29
		L299.4,128.2L299.4,128.2z"/>
	<path class="st4" d="M573.4,589c-8.7,0-17.5-3.4-24.2-10L403.4,433c-56.2-56.2-90.9-79-120.1-79s-63.9,22.9-120.1,79l-43.6,43.6
		c-13.3,13.3-34.9,13.3-48.2,0s-13.3-34.9,0-48.2l43.6-43.6c59.5-59.5,110.9-99.1,168.3-99.1c57.5,0,108.8,39.6,168.3,99.1l146,146
		c13.3,13.3,13.3,34.9,0,48.2C590.9,585.7,582.1,589,573.4,589z"/>
	<path class="st4" d="M511.8,515.4c-9.3,0-18.6-3.8-25.4-11.3c-12.6-14-11.5-35.6,2.6-48.2c46.3-41.7,83.2-62.2,120-66.9
		c39.1-4.9,77.8,8.5,121.6,42.1c14.9,11.5,17.8,32.9,6.3,47.8s-32.9,17.8-47.8,6.3c-37.3-28.6-57.8-30.2-71.7-28.5
		c-21.7,2.7-48,18.5-82.7,49.9C528.1,512.5,520,515.4,511.8,515.4z"/>
	<path class="st4" d="M539.1,332.9c-37.7,0-68.3-30.6-68.3-68.3s30.6-68.3,68.3-68.3s68.3,30.6,68.3,68.3S576.8,332.9,539.1,332.9z
		 M539.1,264.6L539.1,264.6L539.1,264.6z"/>
</g>
<path class="st8" d="M687.1,76.2H118.4c-22.5,0-40.6,18.2-40.6,40.6V523c0,22.5,18.2,40.6,40.6,40.6h186l-58.7,101.6
	c-11.2,19.4-4.6,44.3,14.9,55.5c19.4,11.2,44.3,4.6,55.5-14.9l82.1-142.2h9.1l82.1,142.2c11.2,19.4,36.1,26.1,55.5,14.9
	c19.4-11.2,26.1-36.1,14.8-55.5L501,563.6h186c22.5,0,40.6-18.2,40.6-40.6V116.8C727.7,94.3,709.6,76.2,687.1,76.2z M321.5,441.8
	h-81.3v-81.3h81.3L321.5,441.8L321.5,441.8z M443.4,441.8h-81.3V279.3h81.3V441.8z M565.2,441.8h-81.3V198.1h81.3V441.8z"/>
<g class="st0">
	<rect x="132.6" y="303.6" class="st6" width="533.2" height="353.6"/>
	<path class="st4" d="M615.3,704.9H190.1c-50.2,0-91.1-40.9-91.1-91.1V188.6c0-50.2,40.9-91.1,91.1-91.1h425.3
		c50.2,0,91.1,40.9,91.1,91.1v425.2C706.5,664,665.6,704.9,615.3,704.9z M190.1,158.2c-16.7,0-30.4,13.6-30.4,30.4v425.2
		c0,16.7,13.6,30.4,30.4,30.4h425.3c16.7,0,30.4-13.6,30.4-30.4V188.6c0-16.7-13.6-30.4-30.4-30.4H190.1z"/>
	<path class="st4" d="M676.1,340.4H129.3c-16.8,0-30.4-13.6-30.4-30.4s13.6-30.4,30.4-30.4h546.8c16.8,0,30.4,13.6,30.4,30.4
		S692.9,340.4,676.1,340.4z"/>
	<path class="st4" d="M676.1,522.7H129.3c-16.8,0-30.4-13.6-30.4-30.4s13.6-30.4,30.4-30.4h546.8c16.8,0,30.4,13.6,30.4,30.4
		S692.9,522.7,676.1,522.7z"/>
	<path class="st4" d="M311.6,704.9c-16.8,0-30.4-13.6-30.4-30.4V310.1c0-16.8,13.6-30.4,30.4-30.4s30.4,13.6,30.4,30.4v364.5
		C342,691.3,328.4,704.9,311.6,704.9z"/>
	<path class="st4" d="M493.8,704.9c-16.8,0-30.4-13.6-30.4-30.4V310.1c0-16.8,13.6-30.4,30.4-30.4s30.4,13.6,30.4,30.4v364.5
		C524.2,691.3,510.6,704.9,493.8,704.9z"/>
</g>
<g id="XMLID_467_" class="st0">
	<path id="XMLID_468_" class="st4" d="M402.6,70.4c-182.3,0-330.7,148.4-330.7,330.8c0,46.9,9.6,92.1,28.5,134.4l-28,161.1
		c-1.7,9.6,1.4,19.5,8.4,26.4c5.7,5.7,13.4,8.8,21.3,8.8c1.7,0,3.4-0.1,5.1-0.4l161.1-28c42.4,18.9,87.5,28.5,134.4,28.5
		c182.4,0,330.8-148.4,330.8-330.8S585,70.4,402.6,70.4z M563,501.4H242.3c-16.6,0-30.1-13.5-30.1-30.1s13.5-30.1,30.1-30.1H563
		c16.6,0,30.1,13.5,30.1,30.1S579.6,501.4,563,501.4z M563,361.1H242.3c-16.6,0-30.1-13.5-30.1-30.1s13.5-30.1,30.1-30.1H563
		c16.6,0,30.1,13.5,30.1,30.1S579.6,361.1,563,361.1z"/>
</g>
<g class="st0">
	<polygon class="st6" points="225.8,92.2 606.1,92.2 683.8,157.1 723.6,244.7 84.1,254.8 106.7,158.4 168.3,98.2 	"/>
	<polygon class="st6" points="90.7,557.7 713.3,552.1 698.5,636 645,690.8 529.8,722.1 193.8,707.4 113.1,656.5 90.7,581.2 	"/>
	<path class="st4" d="M402.7,737.7c-75.9,0-130.7,0-174.9-5.9c-49.7-6.7-83.2-21.1-108.9-46.8s-40.1-59.3-46.8-108.9
		c-5.9-44.2-5.9-99-5.9-174.9s0-130.7,5.9-174.9c6.7-49.7,21.1-83.2,46.8-108.9s59.3-40.1,108.9-46.8c44.2-5.9,99-5.9,174.9-5.9
		s130.7,0,174.9,5.9c49.7,6.7,83.2,21.1,108.9,46.8s40.1,59.3,46.8,108.9c5.9,44.2,5.9,99,5.9,174.9s0,130.7-5.9,174.9
		c-6.7,49.7-21.1,83.2-46.8,108.9s-59.3,40.1-108.9,46.8C533.4,737.7,478.6,737.7,402.7,737.7z M402.7,111.6
		c-140.9,0-211.6,0-250.6,39s-39,109.7-39,250.6s0,211.6,39,250.6s109.7,39,250.6,39s211.6,0,250.6-39s39-109.7,39-250.6
		s0-211.6-39-250.6S543.6,111.6,402.7,111.6z"/>
	<path class="st4" d="M700.1,581.2H105.3c-13,0-23.5-10.5-23.5-23.5s10.5-23.5,23.5-23.5h594.8c13,0,23.5,10.5,23.5,23.5
		S713,581.2,700.1,581.2z"/>
	<path class="st4" d="M700.1,268.2H105.3c-13,0-23.5-10.5-23.5-23.5c0-13,10.5-23.5,23.5-23.5h594.8c13,0,23.5,10.5,23.5,23.5
		C723.6,257.7,713,268.2,700.1,268.2z"/>
	<path class="st4" d="M402.7,737.7c-13,0-23.5-10.5-23.5-23.5V557.7c0-13,10.5-23.5,23.5-23.5s23.5,10.5,23.5,23.5v156.5
		C426.2,727.2,415.7,737.7,402.7,737.7z M402.7,268.2c-13,0-23.5-10.5-23.5-23.5V88.2c0-13,10.5-23.5,23.5-23.5s23.5,10.5,23.5,23.5
		v156.5C426.2,257.7,415.7,268.2,402.7,268.2z"/>
	<path class="st4" d="M559.2,722.1c-13,0-23.5-10.5-23.5-23.5V557.7c0-13,10.5-23.5,23.5-23.5s23.5,10.5,23.5,23.5v140.9
		C582.7,711.5,572.2,722.1,559.2,722.1z M559.2,268.2c-13,0-23.5-10.5-23.5-23.5V103.8c0-13,10.5-23.5,23.5-23.5
		s23.5,10.5,23.5,23.5v140.9C582.7,257.7,572.2,268.2,559.2,268.2z"/>
	<path class="st4" d="M246.2,722.1c-13,0-23.5-10.5-23.5-23.5V557.7c0-13,10.5-23.5,23.5-23.5s23.5,10.5,23.5,23.5v140.9
		C269.7,711.5,259.1,722.1,246.2,722.1z M246.2,268.2c-13,0-23.5-10.5-23.5-23.5V103.8c0-13,10.5-23.5,23.5-23.5
		s23.5,10.5,23.5,23.5v140.9C269.7,257.7,259.1,268.2,246.2,268.2z"/>
	<path class="st4" d="M361.7,502.9c-8,0-15.4-2.2-22-6.6c-15.8-10.4-19.7-28.2-21.3-40.7c-1.8-13.7-1.8-30.8-1.8-54.5
		c0-23.6,0-40.7,1.8-54.5c1.6-12.5,5.5-30.2,21.3-40.7c19.5-12.9,39.7-3.6,46.4-0.5c11.7,5.4,24.6,14.1,42.6,26.2
		c17.7,11.9,30.5,20.5,40.1,29.4c8.6,7.9,20,20.7,20,40.1s-11.4,32.2-20,40.1c-9.6,8.9-22.4,17.5-40.1,29.4
		c-18,12.1-31,20.8-42.6,26.2c-7.8,3.6-14.9,5.6-21.5,6C363.6,502.9,362.6,502.9,361.7,502.9z M365.8,347.8c-0.5,2.3-1,5.8-1.4,11
		c-0.8,10.5-0.8,24.5-0.8,42.3s0,31.8,0.8,42.3c0.4,5.3,0.9,8.8,1.4,11c8.2-3.7,23.2-13.8,36.7-22.9c13.4-9,24-16.1,31.2-22.1
		c6.4-5.2,7.8-7.8,8.1-8.4c-0.3-0.6-1.7-3.1-8.1-8.4c-7.2-5.9-17.8-13.1-31.2-22.1C388.9,361.6,373.9,351.6,365.8,347.8z"/>
</g>
<path id="路径" class="st9" d="M309,172.9c0-42.4,29.3-76.8,65.5-76.8h65.5c36.2,0,65.5,34.4,65.5,76.8h139.7
	c11.3-23,32.5-38.4,56.7-38.4c36.2,0,65.5,34.4,65.5,76.8s-29.3,76.8-65.5,76.8c-24.2,0-45.4-15.4-56.7-38.4h-111
	c71.5,46.5,122.4,131.1,133,230.4h2c36.2,0,65.5,34.4,65.5,76.8v76.8c0,42.4-29.3,76.8-65.5,76.8h-65.5c-36.2,0-65.5-34.4-65.5-76.8
	v-76.8c0-41.3,27.9-75.1,62.8-76.7c-11.2-78.4-56.2-143.4-116.8-173.7c-11.6,12.5-27.1,20.1-44.1,20.1h-65.5
	c-17,0-32.5-7.6-44.1-20.1c-60.6,30.3-105.6,95.3-116.8,173.7c34.9,1.7,62.8,35.4,62.8,76.7v76.8c0,42.4-29.3,76.8-65.5,76.8h-65.5
	c-36.2,0-65.5-34.4-65.5-76.8v-76.8c0-42.4,29.3-76.8,65.5-76.8h2c10.6-99.3,61.5-183.9,133-230.4h-111
	c-11.3,23-32.5,38.4-56.7,38.4c-36.2,0-65.5-34.4-65.5-76.8s29.3-76.8,65.5-76.8c24.2,0,45.4,15.4,56.7,38.4H309z"/>
</svg>
