<?xml version="1.0" encoding="utf-8"?>
<!-- Generator: Adobe Illustrator 27.0.1, SVG Export Plug-In . SVG Version: 6.00 Build 0)  -->
<svg version="1.1" id="Layer_1" xmlns="http://www.w3.org/2000/svg" xmlns:xlink="http://www.w3.org/1999/xlink" x="0px" y="0px"
	 viewBox="0 0 800 800" style="enable-background:new 0 0 800 800;" xml:space="preserve">
<style type="text/css">
	.st0{fill:#2D60B1;}
	.st1{opacity:0.29;fill:#2D60B1;enable-background:new    ;}
</style>
<g>
	<path class="st0" d="M331.2,609.9c-19.5,0-35.2-15.8-35.2-35.2V363.2c0-19.5,15.8-35.2,35.2-35.2c19.5,0,35.2,15.8,35.2,35.2v211.4
		C366.4,594.1,350.6,609.9,331.2,609.9z"/>
	<path class="st0" d="M472.1,609.9c-19.5,0-35.2-15.8-35.2-35.2V363.2c0-19.5,15.8-35.2,35.2-35.2c19.5,0,35.2,15.8,35.2,35.2v211.4
		C507.4,594.1,491.6,609.9,472.1,609.9z"/>
	<path class="st0" d="M683.6,257.5H119.8c-19.5,0-35.2-15.8-35.2-35.2s15.8-35.2,35.2-35.2h563.8c19.5,0,35.2,15.8,35.2,35.2
		S703,257.5,683.6,257.5z"/>
	<path class="st0" d="M507.4,750.8H295.9c-77.7,0-140.9-63.2-140.9-140.9V222.3c0-19.5,15.8-35.2,35.2-35.2H613
		c19.5,0,35.2,15.8,35.2,35.2v387.6C648.3,687.6,585.1,750.8,507.4,750.8z M225.5,257.5v352.4c0,38.9,31.6,70.5,70.5,70.5h211.4
		c38.9,0,70.5-31.6,70.5-70.5V257.5H225.5z"/>
	<path class="st0" d="M507.4,257.5H295.9c-19.5,0-35.2-15.8-35.2-35.2v-70.5c0-58.3,47.4-105.7,105.7-105.7h70.5
		c58.3,0,105.7,47.4,105.7,105.7v70.5C542.6,241.7,526.8,257.5,507.4,257.5z M331.2,187h140.9v-35.2c0-19.4-15.8-35.2-35.2-35.2
		h-70.5c-19.4,0-35.2,15.8-35.2,35.2L331.2,187L331.2,187z"/>
	<rect x="213.4" y="242.8" class="st1" width="396.4" height="447.7"/>
</g>
</svg>
