<?xml version="1.0" encoding="utf-8"?>
<!-- Generator: Adobe Illustrator 27.0.1, SVG Export Plug-In . SVG Version: 6.00 Build 0)  -->
<svg version="1.1" id="Layer_1" xmlns="http://www.w3.org/2000/svg" xmlns:xlink="http://www.w3.org/1999/xlink" x="0px" y="0px"
	 viewBox="0 0 800 800" style="enable-background:new 0 0 800 800;" xml:space="preserve">
<style type="text/css">
	.st0{opacity:0.28;fill:#323232;enable-background:new    ;}
	.st1{fill:#323232;}
</style>
<g>
	<path class="st0" d="M572.7,544.2L512.6,484c37.5-33.8,66.7-51.1,94.1-54.6c27-3.4,54.2,6.7,88.3,32.8c1.5,1.2,3.3,1.7,5.1,1.7
		v36.8c0,164-35.2,199.2-199.2,199.2H299.2c-164,0-199.2-35.2-199.2-199.2v-42.4c2.1,0,4.3-0.8,5.9-2.4l42.6-42.6
		c28.9-28.9,53.2-50.1,75.2-64.1c21.9-14,41.1-20.4,59.7-20.4c18.6,0,37.8,6.5,59.7,20.4c22,14,46.4,35.2,75.2,64.1L560.9,556
		c3.3,3.3,8.5,3.3,11.8,0C576,552.7,576,547.4,572.7,544.2z"/>
	<path class="st1" d="M500.8,733.3H299.2c-82.1,0-145-8.1-184.7-47.8c-39.7-39.7-47.8-102.5-47.8-184.7V299.2
		c0-82.1,8.1-145,47.8-184.7s102.6-47.8,184.7-47.8h201.6c82.1,0,145,8.1,184.7,47.8c39.7,39.7,47.8,102.6,47.8,184.7v201.6
		c0,82.1-8.1,145-47.8,184.7C645.8,725.2,582.9,733.3,500.8,733.3z M299.2,133.3c-77.6,0-117.4,8.2-137.5,28.3
		c-20.1,20.1-28.3,60-28.3,137.5v201.6c0,77.6,8.2,117.4,28.3,137.5c20.1,20.1,60,28.3,137.5,28.3h201.6
		c77.6,0,117.4-8.2,137.5-28.3s28.3-60,28.3-137.5V299.2c0-77.6-8.2-117.4-28.3-137.5c-20.1-20.1-60-28.3-137.5-28.3H299.2z"/>
	<path class="st1" d="M566.8,583.4c-8.5,0-17.1-3.3-23.6-9.8L400.7,431.1c-54.9-54.9-88.8-77.2-117.3-77.2s-62.4,22.4-117.3,77.2
		l-42.6,42.6c-13,13-34.1,13-47.1,0c-13-13-13-34.1,0-47.1l42.6-42.6c58.1-58.1,108.3-96.8,164.4-96.8c56.2,0,106.3,38.7,164.4,96.8
		l142.6,142.6c13,13,13,34.1,0,47.1C583.9,580.2,575.3,583.4,566.8,583.4z"/>
	<path class="st1" d="M506.6,511.5c-9.1,0-18.2-3.7-24.8-11c-12.3-13.7-11.2-34.8,2.5-47.1c45.2-40.7,81.3-60.8,117.2-65.3
		c38.2-4.8,76,8.3,118.8,41.1c14.6,11.2,17.4,32.1,6.2,46.7c-11.2,14.6-32.1,17.4-46.7,6.2c-36.4-27.9-56.5-29.5-70-27.8
		c-21.2,2.6-46.9,18.1-80.8,48.7C522.5,508.7,514.6,511.5,506.6,511.5z"/>
	<path class="st1" d="M533.3,333.3c-36.8,0-66.7-29.9-66.7-66.7s29.9-66.7,66.7-66.7c36.8,0,66.7,29.9,66.7,66.7
		S570.1,333.3,533.3,333.3z M533.3,266.6L533.3,266.6C533.3,266.6,533.3,266.6,533.3,266.6z"/>
</g>
</svg>
