<?xml version="1.0" encoding="utf-8"?>
<!-- Generator: Adobe Illustrator 27.0.1, SVG Export Plug-In . SVG Version: 6.00 Build 0)  -->
<svg version="1.1" id="Layer_1" xmlns="http://www.w3.org/2000/svg" xmlns:xlink="http://www.w3.org/1999/xlink" x="0px" y="0px"
	 viewBox="0 0 800 800" style="enable-background:new 0 0 800 800;" xml:space="preserve">
<style type="text/css">
	.st0{fill-rule:evenodd;clip-rule:evenodd;fill:#2D60B1;}
	.st1{fill:#2D60B1;}
</style>
<g>
	<path class="st0" d="M182.2,146.4c9.8,9.8,9.7,25.6,0,35.4c-56,55.8-90.5,133-90.5,218.2c0,86.3,35.4,164.2,92.5,220.2
		c9.9,9.7,10,25.5,0.4,35.4c-9.7,9.9-25.5,10-35.4,0.3C82.9,590.9,41.7,500.2,41.7,400c0-99.1,40.2-188.8,105.2-253.6
		C156.6,136.6,172.5,136.6,182.2,146.4z M620.5,148.8c9.9-9.7,25.7-9.5,35.4,0.4c63.3,64.6,102.4,153.2,102.4,250.8
		c0,98.8-40,188.3-104.7,253.1c-9.8,9.8-25.6,9.8-35.4,0c-9.8-9.8-9.8-25.6,0-35.4C673.9,562,708.3,485,708.3,400
		c0-84-33.6-160.2-88.1-215.8C610.5,174.3,610.7,158.5,620.5,148.8z M277,249.6c9.4,10.1,8.9,25.9-1.2,35.3
		C244.2,314.5,225,355,225,399.4c0,44.9,19.6,85.8,51.9,115.5c10.2,9.3,10.8,25.2,1.5,35.3c-9.3,10.2-25.2,10.8-35.3,1.5
		c-41.8-38.4-68.1-92.3-68.1-152.3c0-59.3,25.7-112.7,66.6-151C251.7,239,267.5,239.5,277,249.6z M524.8,250.9
		c9.5-10,25.4-10.3,35.3-0.8C600,288.2,625,341,625,399.4c0,59.2-25.6,112.4-66.3,150.7c-10.1,9.5-25.9,9-35.3-1.1
		c-9.5-10.1-9-25.9,1.1-35.3c31.5-29.6,50.6-70,50.6-114.3c0-43.8-18.6-83.7-49.5-113.2C515.6,276.7,515.2,260.8,524.8,250.9z"/>
	<path class="st1" d="M455.2,348.4c29.9,21.9,44.8,32.9,44.8,51.6c0,18.7-14.9,29.7-44.8,51.6c-8.2,6.1-16.4,11.7-23.9,16.5
		c-6.6,4.2-14.1,8.5-21.8,12.7c-29.8,16.3-44.7,24.5-58,15.4c-13.4-9-14.6-27.9-17-65.7c-0.7-10.7-1.1-21.2-1.1-30.6
		c0-9.4,0.4-19.9,1.1-30.6c2.4-37.8,3.6-56.7,17-65.7c13.4-9,28.3-0.9,58,15.4c7.7,4.2,15.2,8.5,21.8,12.7
		C438.8,336.6,447,342.3,455.2,348.4z"/>
</g>
</svg>
