<?xml version="1.0" encoding="utf-8"?>

<!DOCTYPE svg PUBLIC "-//W3C//DTD SVG 1.1//EN" "http://www.w3.org/Graphics/SVG/1.1/DTD/svg11.dtd">
<!-- Uploaded to: SVG Repo, www.svgrepo.com, Generator: SVG Repo Mixer Tools -->
<svg height="800px" width="800px" version="1.1" id="_x32_" xmlns="http://www.w3.org/2000/svg" xmlns:xlink="http://www.w3.org/1999/xlink" 
	 viewBox="0 0 512 512"  xml:space="preserve">
<style type="text/css">
	.st0{fill:#000000;}
</style>
<g>
	<path class="st0" d="M503.573,141.566L281.288,48.652c-7.059-2.964-14.904-3.443-22.27-1.423L16.476,113.864
		c-3.168,0.873-5.432,3.647-5.644,6.941c-0.204,3.262,1.69,6.336,4.708,7.601l5.4,2.264l114.374,47.769l42.188,17.624v0.031
		l9.056,3.773l39.115,16.328c7.059,2.963,14.873,3.474,22.27,1.454l163.526-44.971L229.746,353.474l-139.15-58.146l82.175-81.759
		l-9.056-3.773l-89.116,88.63l157.23,65.731l197.39-196.337l47.29-13.01l-239.1,237.834L31.954,306.79l107.684-107.07l-18.111-7.57
		L0,313.07v41.041c0,10.345,6.218,19.676,15.753,23.684l204.756,85.556c12.766,5.338,27.488,2.445,37.299-7.302l246.614-245.318
		c4.858-4.826,7.578-11.374,7.578-18.197v-38.352C512,148.656,508.675,143.68,503.573,141.566z"/>
</g>
</svg>